<svg width="512" height="512" viewBox="0 0 512 512" fill="none" xmlns="http://www.w3.org/2000/svg">
  <!-- Background with rounded corners and gradient -->
  <rect width="512" height="512" rx="115" fill="url(#gradient)"/>
  
  <!-- Define gradient -->
<defs>
  <linearGradient id="gradient" x1="0" y1="0" x2="512" y2="512" gradientUnits="userSpaceOnUse">
    <!-- Deep space / night sky in one corner -->
    <stop offset="0%" stop-color="#0F172A"/>
    <!-- Main ocean blue -->
    <stop offset="50%" stop-color="#1D4ED8"/>
    <!-- Hint of green for land / life -->
    <stop offset="100%" stop-color="#22C55E"/>
  </linearGradient>
</defs>




  
  <!-- Globe/Map icon scaled and centered (made bigger) -->
  <g transform="translate(256, 256) scale(13) translate(-12, -12)">
    <path
      stroke="white"
      stroke-width="2"
      stroke-linecap="round"
      stroke-linejoin="round"
      fill="none"
      d="M3.055 11H5a2 2 0 012 2v1a2 2 0 002 2 2 2 0 012 2v2.945M8 3.935V5.5A2.5 2.5 0 0010.5 8h.5a2 2 0 012 2 2 2 0 104 0 2 2 0 012-2h1.064M15 20.488V18a2 2 0 012-2h3.064M21 12a9 9 0 11-18 0 9 9 0 0118 0z"
    />
  </g>
</svg>